<svg width="40" height="40" viewBox="0 0 60 60" xmlns="http://www.w3.org/2000/svg"><path d="M.3 30C.3 13.4 13.6 0 30 0a29.8 29.8 0 0 1 29.5 30c0 16.6-13.2 30-29.5 30A29.8 29.8 0 0 1 .3 30zm0 0" fill="#333"/><path d="M18.2 32c1.4 2.5 4 4 8.6 4.4-.6.5-1.4 1.5-1.5 2.5a5 5 0 0 1-3.7.3c-1.8-.5-2.5-4-5.1-3.5-.6 0-.5.5 0 .8.8.5 1.6 1.2 2.2 2.5.4 1.1 1.4 3 4.4 3l2-.1v3.8c0 1.2-1.6 1.5-1.6 2.1 0 .3.5.3 1 .3.8 0 2.6-.7 2.6-2v-5c0-1.3.7-1.7.7-1.7s.1 7-.1 7.8c-.3 1.1-.9 1-.9 1.5 0 .7 2.2.2 3-1.4.5-1.3.3-8 .3-8l.6-.1v4.5c0 1.5-.2 3.4.7 4.3.6.5 2.5 1.6 2.5.6 0-.5-1-1-1-2.4v-6.7c.8 0 .6 2.2.6 2.2l.1 4s-.2 1.6 1.6 2.2c.7.2 2 .3 2 0 .1-.5-1.6-1-1.6-2.2v-4.2c0-3-.4-4.2-1.8-5 4.4-.5 7.2-1.6 8.5-4.6l.5-1.3c.3-1.1.5-2.4.5-4 0-4.2-2-5.7-2.4-6.4.6-3.2 0-4.6-.4-5.1-1.1-.4-4 1-5.5 2-2.6-.7-7.9-.6-9.9.2-3.7-2.6-5.7-2.2-5.7-2.2s-1.2 2.3-.3 5.6C18 22.2 17 23.3 17 26.2c0 1.6.2 3 .6 4.4l.6 1.3zm0 0" fill="#FFF"/><path d="M59.4 30c0 16.6-13.2 30-29.5 30-6 0-11.7-1.8-16.4-5L47.4 5.8c7.3 5.5 12 14.3 12 24.2zm0 0" fill-opacity=".1"/></svg>