<svg width="40" height="40" viewBox="0 0 60 60" xmlns="http://www.w3.org/2000/svg"><path d="M.4 30C.4 13.4 13.7 0 30 0a29.8 29.8 0 0 1 29.6 30c0 16.6-13.3 30-29.6 30A29.8 29.8 0 0 1 .4 30zm0 0" fill="#007BB6"/><path d="M22.5 23.7h-6.7v20.4h6.7V23.7zm0 0M23 17.4c-.1-2-1.5-3.5-3.8-3.5s-3.8 1.5-3.8 3.5 1.4 3.5 3.7 3.5c2.4 0 3.8-1.5 3.8-3.5zm0 0M46.6 32.4c0-6.2-3.3-9.2-7.7-9.2-3.6 0-5.2 2-6 3.4v-2.9h-6.7v20.4h6.7V32.7c0-.6 0-1.2.2-1.6.5-1.2 1.6-2.5 3.4-2.5 2.4 0 3.4 1.9 3.4 4.6v11h6.7V32.3zm0 0" fill="#FFF"/><path d="M59.6 30c0 16.6-13.3 30-29.6 30-6 0-11.7-1.8-16.4-5L47.5 5.8c7.3 5.5 12 14.3 12 24.2zm0 0" fill-opacity=".1"/></svg>