<svg width="40" height="40" viewBox="0 0 60 60" xmlns="http://www.w3.org/2000/svg"><path d="M0 30a30 30 0 1 1 60 0 30 30 0 0 1-60 0zm0 0" fill="#4099FF"/><path d="M29.3 23.9v1l-1-.1a17 17 0 0 1-10-5L17 18.6l-.3 1a6.1 6.1 0 0 0 1.3 6.3c.8.9.6 1-.8.5l-1-.3c-.1.2.4 2.1.8 2.9.5 1 1.6 2 2.8 2.7l1 .5h-1.2c-1.1 0-1.2 0-1 .5.4 1.4 2 2.8 3.9 3.4l1.3.5-1.2.7c-1.6 1-3.6 1.5-5.6 1.5-1 0-1.7.1-1.7.2a17.7 17.7 0 0 0 17.8.3 18.4 18.4 0 0 0 8.4-14.6c0-1 0-1 1.3-2.2l1.4-1.7c.2-.4.2-.4-.8 0-1.8.6-2 .5-1.2-.4.7-.7 1.4-2 1.4-2.3 0 0-.3 0-.6.3L41 19l-1.1.3-1-.7-1.8-.9c-1.1-.3-2.7-.3-3.7 0a6 6 0 0 0-4.1 6.2zm0 0" fill="#FFF"/><path d="M60 30a30 30 0 0 1-46.6 25L47.8 5.8A30 30 0 0 1 60.1 30zm0 0" fill-opacity=".1"/></svg>